# File created by Blade
# Date/Time:  Wed Jan 21 17:05:50 2015
#---------------------------------------------------------
:version 1.10
:name HOM
:units
  mass 1.0
  length 1.000000
  angle deg
:documentation
     Acclaim Skeleton File
:root
   axis xyz
   order TX TY TZ RX RY RZ
   position 0.000000 0.000000 0.000000
   orientation 0 0 0
:bonedata
   begin
      id 1
      name Spine_dum
      direction 0.000000 1.000000 0.000000
      length 7.067664
      axis 0.0 0.0 0.0 xyz
   end
   begin
      id 2
      name LeftUpLeg_dum
      direction 1.000000 0.000000 0.000000
      length 4.013002
      axis 0.0 0.0 0.0 xyz
   end
   begin
      id 3
      name RightUpLeg_dum
      direction -1.000000 0.000000 0.000000
      length 4.013002
      axis 0.0 0.0 0.0 xyz
   end
   begin
      id 4
      name Spine
      direction 0.000000 1.000000 0.000000
      length 0.000000
      axis 0.0 0.0 0.0 xyz
      dof rx ry rz
   end
   begin
      id 5
      name Spine_dum1
      direction 0.000000 1.000000 0.000000
      length 15.039886
      axis 0.0 0.0 0.0 xyz
   end
   begin
      id 6
      name Spine_dum2
      direction 0.000000 1.000000 0.000000
      length 10.530368
      axis 0.0 0.0 0.0 xyz
   end
   begin
      id 7
      name Spine_dum3
      direction 0.000000 1.000000 0.000000
      length 10.530368
      axis 0.0 0.0 0.0 xyz
   end
   begin
      id 8
      name Head
      direction 0.000000 1.000000 0.000000
      length 4.527550
      axis 0.0 0.0 0.0 xyz
      dof rx ry rz
   end
   begin
      id 9
      name LeftShoulder
      direction 1.000000 0.000000 0.000000
      length 7.028855
      axis 0.0 0.0 -90.0 xyz
      dof rx ry rz
   end
   begin
      id 10
      name LeftArm
      direction 1.000000 0.000000 0.000000
      length 10.797705
      axis 0.0 0.0 -90.0 xyz
      dof rx ry rz
   end
   begin
      id 11
      name LeftForeArm
      direction 1.000000 0.000000 0.000000
      length 7.907442
      axis 0.0 0.0 -90.0 xyz
      dof ry rz rx
   end
   begin
      id 12
      name LeftHand
      direction 0.000000 0.000000 0.000000
      length 0.000000
      axis 0.0 0.0 -90.0 xyz
      dof rx ry rz
   end
   begin
      id 13
      name LeftHand_dum1
      direction 0.000000 0.000000 0.000000
      length 0.000000
      axis 0.0 0.0 -90.0 xyz
   end
   begin
      id 14
      name LeftHand_dum2
      direction 1.000000 0.000000 0.000000
      length 3.937000
      axis 0.0 0.0 -90.0 xyz
   end
   begin
      id 15
      name LeftHandThumb1
      direction 0.000000 0.000000 1.000000
      length 3.937000
      axis 0.0 0.0 -90.0 xyz
      dof rx rz ry
   end
   begin
      id 16
      name RightShoulder
      direction -1.000000 0.000000 0.000000
      length 7.028855
      axis 0.0 0.0 90.0 xyz
      dof rx ry rz
   end
   begin
      id 17
      name RightArm
      direction -1.000000 0.000000 0.000000
      length 10.797705
      axis 0.0 0.0 90.0 xyz
      dof rx ry rz
   end
   begin
      id 18
      name RightForeArm
      direction -1.000000 0.000000 0.000000
      length 7.907442
      axis 0.0 0.0 90.0 xyz
      dof ry rz rx
   end
   begin
      id 19
      name RightHand
      direction 0.000000 0.000000 0.000000
      length 0.000000
      axis 0.0 0.0 90.0 xyz
      dof rx ry rz
   end
   begin
      id 20
      name RightHand_dum1
      direction 0.000000 0.000000 0.000000
      length 0.000000
      axis 0.0 0.0 90.0 xyz
   end
   begin
      id 21
      name RightHand_dum2
      direction -1.000000 0.000000 0.000000
      length 3.937000
      axis 0.0 0.0 90.0 xyz
   end
   begin
      id 22
      name RightHandThumb1
      direction 0.000000 0.000000 1.000000
      length 3.937000
      axis 0.0 0.0 90.0 xyz
      dof rx rz ry
   end
   begin
      id 23
      name LeftUpLeg
      direction 0.000000 -1.000000 0.000000
      length 16.899758
      axis 0.0 0.0 0.0 xyz
      dof rx ry rz
   end
   begin
      id 24
      name LeftLeg
      direction 0.000000 -1.000000 0.000000
      length 17.389183
      axis 0.0 0.0 0.0 xyz
      dof rx ry rz
   end
   begin
      id 25
      name LeftFoot
      direction 0.000000 -0.258819 0.965926
      length 4.924528
      axis 15.0 0.0 0.0 xyz
      dof rx ry rz
   end
   begin
      id 26
      name LeftToeBase
      direction 0.000000 0.000000 1.000000
      length 2.952750
      axis 0.0 0.0 0.0 xyz
      dof rx ry rz
   end
   begin
      id 27
      name RightUpLeg
      direction 0.000000 -1.000000 0.000000
      length 16.899758
      axis 0.0 0.0 0.0 xyz
      dof rx ry rz
   end
   begin
      id 28
      name RightLeg
      direction 0.000000 -1.000000 0.000000
      length 17.389183
      axis 0.0 0.0 0.0 xyz
      dof rx ry rz
   end
   begin
      id 29
      name RightFoot
      direction 0.000000 -0.258819 0.965926
      length 4.924528
      axis 15.0 0.0 0.0 xyz
      dof rx ry rz
   end
   begin
      id 30
      name RightToeBase
      direction 0.000000 0.000000 1.000000
      length 2.952750
      axis 0.0 0.0 0.0 xyz
      dof rx ry rz
   end
:hierarchy
   begin
      root Spine_dum LeftUpLeg_dum RightUpLeg_dum
      Spine_dum Spine
      LeftUpLeg_dum LeftUpLeg
      RightUpLeg_dum RightUpLeg
      Spine Spine_dum1 Spine_dum2 Spine_dum3
      Spine_dum1 Head
      Spine_dum2 LeftShoulder
      Spine_dum3 RightShoulder
      LeftShoulder LeftArm
      LeftArm LeftForeArm
      LeftForeArm LeftHand
      LeftHand LeftHand_dum1 LeftHand_dum2
      LeftHand_dum1 LeftHandThumb1
      RightShoulder RightArm
      RightArm RightForeArm
      RightForeArm RightHand
      RightHand RightHand_dum1 RightHand_dum2
      RightHand_dum1 RightHandThumb1
      LeftUpLeg LeftLeg
      LeftLeg LeftFoot
      LeftFoot LeftToeBase
      RightUpLeg RightLeg
      RightLeg RightFoot
      RightFoot RightToeBase
   end

# File created by Blade
# Date/Time:  Wed Jan 21 17:05:57 2015
# Frame Rate: 120.000 fps
#------------------------------------------------------
:FULLY-SPECIFIED
:DEGREES
44
root 19.382010 35.611008 -22.806258 -173.506978 -1.563176 -179.341176
Spine -18.519245 -0.590546 -0.352835
Head 8.718717 -1.161082 1.317217
LeftShoulder -9.528941 -30.786188 16.348581
LeftArm 3.933713 3.406595 -10.653450
LeftForeArm 2.900797 -0.000000 -3.287978
LeftHand -8.870824 0.000000 -4.976786
LeftHandThumb1 -26.253704 0.000000 33.147579
RightShoulder -10.070621 -6.438271 -7.239178
RightArm 10.840219 35.624102 14.027244
RightForeArm -31.918354 -0.000000 4.381369
RightHand -6.809669 0.000000 7.002307
RightHandThumb1 -24.326973 -0.000000 -32.862282
LeftUpLeg 1.389933 10.106457 2.720315
LeftLeg -4.716976 -0.000000 0.000000
LeftFoot -19.437004 24.535150 -15.407678
LeftToeBase 24.068779 -0.000000 -0.000000
RightUpLeg 0.492053 -8.577636 -1.248333
RightLeg -2.235951 -0.000000 0.000000
RightFoot -21.208163 -23.304382 18.626094
RightToeBase 22.968903 -0.000000 -0.000000
45
root 19.379746 35.610413 -22.806580 -173.513979 -1.576232 -179.348556
Spine -18.501850 -0.601081 -0.353128
Head 8.712632 -1.158252 1.318161
LeftShoulder -9.536958 -30.807443 16.361449
LeftArm 3.910136 3.345602 -10.655792
LeftForeArm 2.918076 -0.000000 -3.298737
LeftHand -8.870910 0.000000 -4.969159
LeftHandThumb1 -26.253704 0.000000 33.147579
RightShoulder -10.061908 -6.470068 -7.237220
RightArm 10.805710 35.675112 14.004384
RightForeArm -31.807538 -0.000000 4.341571
RightHand -6.752829 0.000000 6.874748
RightHandThumb1 -24.326973 -0.000000 -32.862282
LeftUpLeg 1.400821 10.111801 2.711879
LeftLeg -4.726650 -0.000000 0.000000
LeftFoot -19.424480 24.524300 -15.399392
LeftToeBase 24.044283 -0.000000 -0.000000
RightUpLeg 0.501983 -8.597861 -1.262297
RightLeg -2.240207 -0.000000 0.000000
RightFoot -21.231138 -23.358673 18.500284
RightToeBase 23.293996 -0.000000 -0.000000
46
root 19.378671 35.610736 -22.807164 -173.521953 -1.587013 -179.340315
Spine -18.482877 -0.601403 -0.332685
Head 8.703726 -1.153572 1.315307
LeftShoulder -9.540896 -30.822148 16.359845
LeftArm 3.887682 3.310862 -10.655819
LeftForeArm 2.892845 0.000000 -3.304541
LeftHand -8.859623 0.000000 -4.978213
LeftHandThumb1 -26.253704 0.000000 33.147579
RightShoulder -10.054007 -6.395106 -7.273393
RightArm 10.730499 35.698321 13.988455
RightForeArm -31.943598 -0.000000 4.358926
RightHand -6.729994 -0.000000 6.902385
RightHandThumb1 -24.326973 -0.000000 -32.862282
LeftUpLeg 1.417861 10.099100 2.721805
LeftLeg -4.745359 -0.000000 0.000000
LeftFoot -19.419983 24.520622 -15.402025
LeftToeBase 24.043570 -0.000000 -0.000000
RightUpLeg 0.515557 -8.575116 -1.254736
RightLeg -2.240558 -0.000000 0.000000
RightFoot -21.211340 -23.321834 18.616185
RightToeBase 22.989817 -0.000000 -0.000000
47
root 19.377396 35.610049 -22.807527 -173.524974 -1.602195 -179.334817
Spine -18.472633 -0.609209 -0.319890
Head 8.698519 -1.171989 1.318303
LeftShoulder -9.545584 -30.836416 16.375414
LeftArm 3.869029 3.286469 -10.667094
LeftForeArm 2.886596 -0.000000 -3.324043
LeftHand -8.859174 -0.000000 -4.982622
LeftHandThumb1 -26.253704 0.000000 33.147579
RightShoulder -10.050687 -6.414183 -7.272160
RightArm 10.689158 35.713782 13.949009
RightForeArm -31.904997 -0.000000 4.347594
RightHand -6.739989 -0.000000 6.879910
RightHandThumb1 -24.326973 -0.000000 -32.862282
LeftUpLeg 1.423425 10.100572 2.727237
LeftLeg -4.754359 -0.000000 0.000000
LeftFoot -19.414768 24.509770 -15.369454
LeftToeBase 24.081360 -0.000000 -0.000000
RightUpLeg 0.523618 -8.569279 -1.250127
RightLeg -2.244328 -0.000000 0.000000
RightFoot -21.207286 -23.338443 18.622185
RightToeBase 22.941231 -0.000000 -0.000000
48
root 19.375440 35.609815 -22.808464 -173.538192 -1.617934 -179.340034
Spine -18.443790 -0.611224 -0.323662
Head 8.673098 -1.191012 1.337955
LeftShoulder -9.546070 -30.847650 16.379552
LeftArm 3.855247 3.279168 -10.666169
LeftForeArm 2.868882 -0.000000 -3.333670
LeftHand -8.842938 0.000000 -4.993859
LeftHandThumb1 -26.253704 0.000000 33.147579
RightShoulder -10.053492 -6.391817 -7.273228
RightArm 10.628036 35.729501 13.906895
RightForeArm -31.913779 -0.000000 4.341436
RightHand -6.730769 0.000000 6.876335
RightHandThumb1 -24.326973 -0.000000 -32.862282
LeftUpLeg 1.440289 10.089961 2.723202
LeftLeg -4.764266 -0.000000 0.000000
LeftFoot -19.411505 24.507173 -15.369487
LeftToeBase 24.093044 -0.000000 -0.000000
RightUpLeg 0.546966 -8.616421 -1.257085
RightLeg -2.259680 -0.000000 0.000000
RightFoot -21.206678 -23.310959 18.617580
RightToeBase 23.016331 -0.000000 -0.000000
49
root 19.373041 35.609155 -22.808847 -173.538765 -1.621098 -179.343401
Spine -18.432819 -0.598160 -0.324047
Head 8.645173 -1.184977 1.371753
LeftShoulder -9.552933 -30.840487 16.386302
LeftArm 3.869558 3.261115 -10.672114
LeftForeArm 2.900597 -0.000000 -3.351216
LeftHand -8.913193 -0.000000 -5.037504
LeftHandThumb1 -26.253704 0.000000 33.147579
RightShoulder -10.068453 -6.379035 -7.284494
RightArm 10.593875 35.760729 13.892873
RightForeArm -31.949289 -0.000000 4.339045
RightHand -6.745990 -0.000000 6.865669
RightHandThumb1 -24.326973 -0.000000 -32.862282
LeftUpLeg 1.450846 10.080673 2.717080
LeftLeg -4.782218 -0.000000 0.000000
LeftFoot -19.410056 24.511570 -15.377709
LeftToeBase 24.079347 -0.000000 -0.000000
RightUpLeg 0.551996 -8.609539 -1.267538
RightLeg -2.268549 -0.000000 0.000000
RightFoot -21.214814 -23.369268 18.486677
RightToeBase 23.287806 -0.000000 -0.000000
50
root 19.371280 35.608558 -22.809819 -173.557824 -1.640201 -179.338263
Spine -18.406047 -0.605243 -0.310026
Head 8.675875 -1.172457 1.346962
LeftShoulder -9.524285 -30.867006 16.377194
LeftArm 3.807687 3.239926 -10.661055
LeftForeArm 2.916396 -0.000000 -3.354644
LeftHand -8.821201 -0.000000 -5.037664
LeftHandThumb1 -26.253704 0.000000 33.147579
RightShoulder -10.044379 -6.352002 -7.303087
RightArm 10.491569 35.732684 13.838338
RightForeArm -31.931048 0.000000 4.356187
RightHand -6.757396 -0.000000 6.870692
RightHandThumb1 -24.326973 -0.000000 -32.862282
LeftUpLeg 1.474046 10.068583 2.724848
LeftLeg -4.793707 -0.000000 0.000000
LeftFoot -19.394387 24.513581 -15.334763
LeftToeBase 24.078654 -0.000000 -0.000000
RightUpLeg 0.580615 -8.608594 -1.264842
RightLeg -2.273997 -0.000000 0.000000
RightFoot -21.210191 -23.360100 18.601448
RightToeBase 23.037398 -0.000000 -0.000000
51
root 19.369413 35.608480 -22.810623 -173.559707 -1.641235 -179.348892
Spine -18.392429 -0.602235 -0.323811
Head 8.652828 -1.172081 1.371762
LeftShoulder -9.529587 -30.891691 16.398981
LeftArm 3.779355 3.252859 -10.665321
LeftForeArm 2.904751 -0.000000 -3.359532
LeftHand -8.793339 -0.000000 -5.047059
LeftHandThumb1 -26.253704 0.000000 33.147579
RightShoulder -10.054985 -6.327113 -7.306388
RightArm 10.460530 35.766381 13.830074
RightForeArm -31.970837 -0.000000 4.359234
RightHand -6.796189 -0.000000 6.872942
RightHandThumb1 -24.326973 -0.000000 -32.862282
LeftUpLeg 1.482917 10.075211 2.712518
LeftLeg -4.804499 -0.000000 0.000000
LeftFoot -19.392882 24.501878 -15.344177
LeftToeBase 24.100399 -0.000000 -0.000000
RightUpLeg 0.593276 -8.641914 -1.280788
RightLeg -2.297611 -0.000000 0.000000
RightFoot -21.215569 -23.384237 18.502350
RightToeBase 23.300605 -0.000000 -0.000000
52
root 19.367895 35.607876 -22.811578 -173.567479 -1.647450 -179.340089
Spine -18.373154 -0.596086 -0.312186
Head 8.642199 -1.172243 1.389600
LeftShoulder -9.532118 -30.895379 16.410329
LeftArm 3.763786 3.225409 -10.676333
LeftForeArm 2.901010 -0.000000 -3.368540
LeftHand -8.797707 -0.000000 -5.011839
LeftHandThumb1 -26.253704 0.000000 33.147579
RightShoulder -10.074758 -6.357495 -7.301092
RightArm 10.462585 35.843459 13.825050
RightForeArm -32.022382 -0.000000 4.346520
RightHand -6.786101 0.000000 6.898556
RightHandThumb1 -24.326973 -0.000000 -32.862282
LeftUpLeg 1.501010 10.067970 2.721226
LeftLeg -4.821399 -0.000000 0.000000
LeftFoot -19.381620 24.497501 -15.327341
LeftToeBase 24.091053 -0.000000 -0.000000
RightUpLeg 0.606597 -8.642412 -1.272872
RightLeg -2.296909 -0.000000 0.000000
RightFoot -21.187242 -23.328845 18.593246
RightToeBase 22.972652 -0.000000 -0.000000
